# xmcd
#
# Track frame offsets:
#	150
#	21515
#	42835
#	66142
#	85865
#	102587
#	126162
#	142482
#	178572
#	198750
#
# Disc length: 2884 seconds
#
# Revision: 1
# Processed by: cddbd v1.5.1PL0 Copyright (c) Steve Scherf et al.
# Submitted via: CDex 1.50Beta5
#
DISCID=910b420a
DTITLE=須川展也 - 美しい夕暮れ〜バラード・セレクション〜
DYEAR=1997
DGENRE=New Age
TTITLE0=マイ・ラブ
TTITLE1=美しい夕暮れ
TTITLE2=星に願いを
TTITLE3=ジェ・トゥ・ブ
TTITLE4=ラビン・ユー
TTITLE5=アディオス・ノニーノ
TTITLE6=ジムノペディI
TTITLE7=悲の鳥*サイバード協奏曲
TTITLE8=追憶のテーマ
TTITLE9=ドント・クライ・フォー・ミー・アルゼンティーナ
EXTD=
EXTT0=
EXTT1=
EXTT2=
EXTT3=
EXTT4=
EXTT5=
EXTT6=
EXTT7=
EXTT8=
EXTT9=
PLAYORDER=
